<svg width="24" height="24" viewBox="0 0 24 24" fill="none" xmlns="http://www.w3.org/2000/svg">
<g id="about us">
<path id="users-three-Regular" d="M12 12.7505C14.619 12.7505 16.75 10.6195 16.75 8.00049C16.75 5.38149 14.619 3.25049 12 3.25049C9.381 3.25049 7.25 5.38149 7.25 8.00049C7.25 10.6195 9.381 12.7505 12 12.7505ZM12 4.75049C13.792 4.75049 15.25 6.20849 15.25 8.00049C15.25 9.79249 13.792 11.2505 12 11.2505C10.208 11.2505 8.75 9.79249 8.75 8.00049C8.75 6.20849 10.208 4.75049 12 4.75049ZM18.75 17.4005V18.2665C18.75 19.0935 18.447 19.8865 17.898 20.4995C17.751 20.6655 17.545 20.7495 17.339 20.7495C17.16 20.7495 16.982 20.6865 16.839 20.5585C16.53 20.2825 16.504 19.8085 16.78 19.4995C17.082 19.1615 17.249 18.7235 17.249 18.2665V17.4005C17.249 16.1515 16.421 15.0715 15.236 14.7745C15.042 14.7255 14.84 14.7525 14.675 14.8455C13.013 15.7715 10.977 15.7675 9.328 14.8495C9.155 14.7515 8.95302 14.7264 8.76202 14.7734C7.57602 15.0714 6.74799 16.1515 6.74799 17.4005V18.2665C6.74799 18.7235 6.91498 19.1615 7.21698 19.4995C7.49298 19.8085 7.46702 20.2825 7.15802 20.5585C6.85002 20.8335 6.375 20.8085 6.099 20.4995C5.55 19.8865 5.24701 19.0925 5.24701 18.2665V17.4005C5.24701 15.4635 6.54098 13.7855 8.39398 13.3185C8.95398 13.1765 9.56501 13.2575 10.062 13.5425C11.253 14.2045 12.733 14.2085 13.938 13.5385C14.428 13.2575 15.037 13.1755 15.6 13.3195C17.456 13.7855 18.75 15.4635 18.75 17.4005ZM17.293 3.92151C17.431 3.53151 17.859 3.32648 18.25 3.46448C19.745 3.99248 20.75 5.41349 20.75 7.00049C20.75 8.06649 20.294 9.08453 19.5 9.79553C19.356 9.92353 19.178 9.98645 19 9.98645C18.794 9.98645 18.589 9.90245 18.441 9.73645C18.165 9.42745 18.191 8.95349 18.5 8.67749C18.977 8.25149 19.25 7.64049 19.25 7.00049C19.25 6.04849 18.647 5.19554 17.75 4.87854C17.359 4.74054 17.155 4.31151 17.293 3.92151ZM21.75 14.8335V15.5555C21.75 15.9695 21.414 16.3055 21 16.3055C20.586 16.3055 20.25 15.9695 20.25 15.5555V14.8335C20.25 13.8505 19.599 13.0005 18.667 12.7665C18.266 12.6655 18.021 12.2584 18.122 11.8564C18.224 11.4544 18.633 11.2115 19.032 11.3115C20.633 11.7135 21.75 13.1615 21.75 14.8335ZM4.5 10.2395C3.706 9.5285 3.25 8.51046 3.25 7.44446C3.25 5.85746 4.255 4.43645 5.75 3.90845C6.144 3.77045 6.56897 3.97548 6.70697 4.36548C6.84497 4.75648 6.641 5.18451 6.25 5.32251C5.353 5.63951 4.75 6.49246 4.75 7.44446C4.75 8.08346 5.023 8.69446 5.5 9.12146C5.809 9.39746 5.83502 9.87154 5.55902 10.1805C5.41202 10.3465 5.206 10.4305 5 10.4305C4.822 10.4305 4.643 10.3675 4.5 10.2395ZM5.33301 13.2104C4.40101 13.4444 3.75 14.2945 3.75 15.2775V16.0005C3.75 16.4145 3.414 16.7505 3 16.7505C2.586 16.7505 2.25 16.4145 2.25 16.0005V15.2784C2.25 13.6064 3.36802 12.1585 4.96802 11.7565C5.36902 11.6585 5.77699 11.8995 5.87799 12.3015C5.97899 12.7015 5.73501 13.1094 5.33301 13.2104Z" fill="#fff"/>
</g>
</svg>
