<svg width="24" height="24" viewBox="0 0 24 24" fill="none" xmlns="http://www.w3.org/2000/svg">
<g id="Apple">
<path id="Vector" d="M21.7724 18.7033C21.4062 19.5418 20.9726 20.3136 20.4703 21.0232C19.7857 21.9906 19.2251 22.6602 18.793 23.032C18.1233 23.6424 17.4057 23.955 16.6373 23.9728C16.0857 23.9728 15.4204 23.8172 14.646 23.5017C13.8691 23.1876 13.1551 23.032 12.5023 23.032C11.8176 23.032 11.0833 23.1876 10.2978 23.5017C9.51121 23.8172 8.8775 23.9816 8.39299 23.9979C7.65613 24.0291 6.92166 23.7076 6.18854 23.032C5.72063 22.6276 5.13536 21.9343 4.43423 20.9521C3.68197 19.9033 3.06351 18.687 2.579 17.3004C2.06011 15.8026 1.79999 14.3523 1.79999 12.9482C1.79999 11.3398 2.1507 9.95259 2.85318 8.79011C3.40526 7.85636 4.13972 7.11979 5.05896 6.57906C5.97821 6.03834 6.97145 5.76279 8.04108 5.74516C8.62635 5.74516 9.39385 5.92456 10.3476 6.27715C11.2987 6.63091 11.9094 6.81031 12.1771 6.81031C12.3773 6.81031 13.0557 6.60054 14.2058 6.18233C15.2933 5.79449 16.2112 5.63391 16.9632 5.69716C19.0008 5.86012 20.5316 6.6561 21.5497 8.09013C19.7274 9.18432 18.8259 10.7169 18.8438 12.6829C18.8603 14.2142 19.4209 15.4886 20.5227 16.5004C21.022 16.97 21.5796 17.333 22.2 17.5907C22.0654 17.9774 21.9234 18.3477 21.7724 18.7033V18.7033ZM17.0992 0.480137C17.0992 1.68041 16.6567 2.8011 15.7747 3.8384C14.7103 5.07155 13.4229 5.78412 12.0267 5.67168C12.009 5.52769 11.9986 5.37614 11.9986 5.21688C11.9986 4.06462 12.5048 2.83147 13.4037 1.82321C13.8525 1.3127 14.4233 0.888228 15.1155 0.549615C15.8061 0.216055 16.4594 0.031589 17.0738 0C17.0918 0.160458 17.0992 0.320926 17.0992 0.480121V0.480137Z" fill="black"/>
</g>
</svg>
