<svg width="24" height="24" viewBox="0 0 24 24" fill="none" xmlns="http://www.w3.org/2000/svg">
<g id="breed">
<path id="pen-Regular" d="M20.4831 3.51843C19.6661 2.70043 18.5791 2.25049 17.4211 2.25049C16.2651 2.25049 15.1781 2.70043 14.3591 3.51843L3.82608 14.0515C3.41808 14.4585 3.1521 14.9754 3.0571 15.5444L2.26712 20.2825C2.20012 20.6835 2.33111 21.0935 2.61911 21.3805C2.85711 21.6185 3.17907 21.7495 3.51107 21.7495C3.57907 21.7495 3.64913 21.7445 3.71713 21.7325L8.45608 20.9425C9.02408 20.8485 9.54009 20.5824 9.94809 20.1744L20.4811 9.64148C21.2991 8.82348 21.7501 7.73647 21.7501 6.57947C21.7501 5.42247 21.3021 4.33643 20.4831 3.51843ZM8.8901 19.1145C8.7041 19.3005 8.47012 19.4205 8.21212 19.4635L3.8041 20.1975L4.53811 15.7905C4.58111 15.5315 4.70211 15.2975 4.88711 15.1125L12.9701 7.02954L16.9721 11.0315L8.8901 19.1145ZM19.4231 8.58154L18.0331 9.97144L14.0311 5.96948L15.4211 4.57947C15.9561 4.04547 16.6661 3.75049 17.4221 3.75049C18.1781 3.75049 18.8891 4.04447 19.4231 4.57947C19.9571 5.11447 20.2521 5.82444 20.2521 6.58044C20.2521 7.33644 19.9571 8.04654 19.4231 8.58154Z" fill="#292F3F"/>
</g>
</svg>
