<svg width="24" height="24" viewBox="0 0 24 24" fill="none" xmlns="http://www.w3.org/2000/svg">
<g id="close">
<g id="1 - Light / times-square">
<path id="times-square-Light" d="M18.2198 6.64372L13.1145 11.749L18.2179 16.8523C18.594 17.2284 18.594 17.8398 18.2179 18.2159C18.0289 18.4049 17.782 18.4975 17.5352 18.4975C17.2883 18.4975 17.0414 18.403 16.8524 18.2159L11.7509 13.1126L6.64761 18.2159C6.4586 18.4049 6.21171 18.4975 5.96484 18.4975C5.71797 18.4975 5.47109 18.403 5.28207 18.2159C4.90598 17.8398 4.90598 17.2284 5.28207 16.8523L10.3854 11.749L5.28207 6.64567C4.90598 6.26957 4.90598 5.65817 5.28207 5.28207C5.65817 4.90598 6.26963 4.90598 6.64572 5.28207L11.7491 10.3854L16.8524 5.28207C17.2285 4.90598 17.8398 4.90598 18.2159 5.28207C18.592 5.65817 18.5959 6.26763 18.2198 6.64372Z" fill="#292F3F"/>
</g>
</g>
</svg>
