<svg width="24" height="24" viewBox="0 0 24 24" fill="none" xmlns="http://www.w3.org/2000/svg">
<g id="cookie">
<g id="2 - Regular / discount">
<path id="discount-Regular" d="M20.7955 9.69446L20.2165 9.11548C19.9795 8.87848 19.8485 8.56247 19.8485 8.22547V7.4115C19.8485 5.6135 18.3865 4.15149 16.5885 4.15149H15.7735C15.4375 4.15149 15.1215 4.02057 14.8835 3.78357L14.3045 3.20447C13.0335 1.93347 10.9655 1.93347 9.69449 3.20447L9.11551 3.78357C8.87851 4.02057 8.5625 4.15149 8.2255 4.15149H7.41153C5.61353 4.15149 4.15152 5.6135 4.15152 7.4115V8.22547C4.15152 8.56147 4.02054 8.87748 3.78354 9.11548L3.2045 9.69446C1.9335 10.9655 1.9335 13.0336 3.2045 14.3046L3.78354 14.8835C4.02054 15.1205 4.15152 15.4366 4.15152 15.7736V16.5875C4.15152 18.3855 5.61353 19.8475 7.41153 19.8475H8.2255C8.5615 19.8475 8.87751 19.9785 9.11551 20.2155L9.69449 20.7946C10.3305 21.4306 11.1645 21.7485 11.9995 21.7485C12.8345 21.7485 13.6685 21.4306 14.3045 20.7946L14.8835 20.2155C15.1205 19.9785 15.4365 19.8475 15.7735 19.8475H16.5885C18.3855 19.8475 19.8485 18.3855 19.8485 16.5875V15.7736C19.8485 15.4376 19.9795 15.1215 20.2165 14.8835L20.7955 14.3046C22.0665 13.0336 22.0665 10.9655 20.7955 9.69446ZM19.7345 13.2435L19.1556 13.8225C18.6346 14.3435 18.3475 15.0355 18.3475 15.7725V16.5866C18.3475 17.5576 17.5575 18.3466 16.5875 18.3466H15.7725C15.0355 18.3466 14.3425 18.6335 13.8225 19.1545L13.2435 19.7335C12.5565 20.4205 11.4405 20.4205 10.7545 19.7335L10.1755 19.1545C9.65451 18.6335 8.9625 18.3466 8.2255 18.3466H7.41153C6.44053 18.3466 5.65152 17.5566 5.65152 16.5866V15.7725C5.65152 15.0355 5.36454 14.3425 4.84354 13.8225L4.2645 13.2435C3.5785 12.5565 3.5785 11.4405 4.2645 10.7545L4.84354 10.1755C5.36454 9.65454 5.65152 8.96247 5.65152 8.22547V7.4115C5.65152 6.4405 6.44153 5.65149 7.41153 5.65149H8.2255C8.9625 5.65149 9.65551 5.36451 10.1755 4.84351L10.7545 4.26453C11.4416 3.57753 12.5575 3.57753 13.2435 4.26453L13.8225 4.84351C14.3435 5.36451 15.0355 5.65149 15.7725 5.65149H16.5875C17.5575 5.65149 18.3475 6.4415 18.3475 7.4115V8.22547C18.3475 8.96247 18.6346 9.65554 19.1556 10.1755L19.7345 10.7545C20.4205 11.4415 20.4205 12.5575 19.7345 13.2435ZM15.5306 8.46851C15.8236 8.76151 15.8236 9.23654 15.5306 9.52954L9.53055 15.5295C9.38455 15.6755 9.19252 15.7495 9.00052 15.7495C8.80852 15.7495 8.61649 15.6765 8.47049 15.5295C8.17749 15.2365 8.17749 14.7615 8.47049 14.4685L14.4705 8.46851C14.7635 8.17651 15.2376 8.17651 15.5306 8.46851ZM15.5005 14.4995C15.5005 15.0515 15.0525 15.4995 14.5005 15.4995C13.9485 15.4995 13.5005 15.0515 13.5005 14.4995C13.5005 13.9475 13.9485 13.4995 14.5005 13.4995C15.0525 13.4995 15.5005 13.9475 15.5005 14.4995ZM8.50052 9.49951C8.50052 8.94751 8.94852 8.49951 9.50052 8.49951C10.0525 8.49951 10.5005 8.94751 10.5005 9.49951C10.5005 10.0515 10.0525 10.4995 9.50052 10.4995C8.94852 10.4995 8.50052 10.0515 8.50052 9.49951Z" fill="#fff"/>
</g>
</g>
</svg>
