<svg width="20" height="20" viewBox="0 0 20 20" fill="none" xmlns="http://www.w3.org/2000/svg">
<g id="2 - Regular / eye">
<path id="eye-Regular" d="M17.6905 8.42999C16.5946 6.60499 14.138 3.54169 9.99963 3.54169C5.86213 3.54169 3.40463 6.60416 2.30879 8.42999C1.72796 9.39833 1.72796 10.6008 2.30879 11.57C3.40546 13.395 5.86213 16.4584 9.99963 16.4584C14.138 16.4584 16.5946 13.3958 17.6905 11.57C18.2721 10.6017 18.2721 9.39916 17.6905 8.42999ZM16.6188 10.9275C15.6588 12.5267 13.5221 15.2092 9.99963 15.2092C6.47713 15.2092 4.34047 12.5267 3.38047 10.9275C3.03797 10.3558 3.03797 9.645 3.38047 9.07417C4.34047 7.475 6.47796 4.7925 9.99963 4.7925C13.523 4.7925 15.6596 7.475 16.6188 9.07417C16.9621 9.645 16.9621 10.3558 16.6188 10.9275ZM9.99963 6.45917C8.04713 6.45917 6.45796 8.04833 6.45796 10.0008C6.45796 11.9533 8.04713 13.5425 9.99963 13.5425C11.9521 13.5425 13.5413 11.9533 13.5413 10.0008C13.5413 8.04833 11.9521 6.45917 9.99963 6.45917ZM9.99963 12.2925C8.73546 12.2925 7.70796 11.265 7.70796 10.0008C7.70796 8.73667 8.73546 7.70917 9.99963 7.70917C11.2638 7.70917 12.2913 8.73667 12.2913 10.0008C12.2913 11.265 11.2638 12.2925 9.99963 12.2925Z" fill="#292F3F"/>
</g>
</svg>
