<svg width="24" height="24" viewBox="0 0 24 24" fill="none" xmlns="http://www.w3.org/2000/svg">
<g id="gender">
<path id="users-Regular" d="M16.7505 17.6375V18.1445C16.7505 19.0185 16.4275 19.8556 15.8415 20.5026C15.6935 20.6656 15.4895 20.7485 15.2855 20.7485C15.1055 20.7485 14.9255 20.6846 14.7815 20.5546C14.4745 20.2766 14.4515 19.8025 14.7295 19.4945C15.0645 19.1245 15.2505 18.6446 15.2505 18.1436V17.6365C15.2505 16.2775 14.3355 15.1005 13.0245 14.7755C12.7995 14.7195 12.5595 14.7495 12.3665 14.8585C10.5825 15.8375 8.4095 15.8325 6.6405 14.8625C6.4395 14.7485 6.20046 14.7185 5.97546 14.7745C4.66346 15.1005 3.74847 16.2765 3.74847 17.6355V18.1425C3.74847 18.6425 3.93347 19.1225 4.26947 19.4935C4.54747 19.8005 4.52447 20.2745 4.21747 20.5525C3.91047 20.8315 3.43751 20.8085 3.15851 20.5005C2.57251 19.8535 2.24951 19.0165 2.24951 18.1425V17.6355C2.24951 15.5855 3.63246 13.8105 5.61346 13.3185C6.20646 13.1715 6.84651 13.2565 7.36951 13.5505C8.68151 14.2705 10.3085 14.2745 11.6365 13.5465C12.1535 13.2555 12.7945 13.1715 13.3865 13.3185C15.3675 13.8135 16.7505 15.5885 16.7505 17.6375ZM18.3865 13.3215C17.9845 13.2225 17.5775 13.4675 17.4775 13.8685C17.3775 14.2705 17.6235 14.6775 18.0245 14.7775C19.3355 15.1025 20.2505 16.2795 20.2505 17.6385V18.1455C20.2505 18.6465 20.0655 19.1255 19.7295 19.4965C19.4515 19.8035 19.4745 20.2775 19.7815 20.5565C19.9255 20.6865 20.1055 20.7505 20.2855 20.7505C20.4895 20.7505 20.6935 20.6675 20.8415 20.5045C21.4275 19.8575 21.7505 19.0205 21.7505 18.1465V17.6395C21.7505 15.5885 20.3675 13.8135 18.3865 13.3215ZM4.75049 7.99951C4.75049 5.38051 6.88149 3.24951 9.50049 3.24951C12.1195 3.24951 14.2505 5.38051 14.2505 7.99951C14.2505 10.6185 12.1195 12.7495 9.50049 12.7495C6.88149 12.7495 4.75049 10.6185 4.75049 7.99951ZM6.25049 7.99951C6.25049 9.79151 7.70849 11.2495 9.50049 11.2495C11.2925 11.2495 12.7505 9.79151 12.7505 7.99951C12.7505 6.20751 11.2925 4.74951 9.50049 4.74951C7.70849 4.74951 6.25049 6.20751 6.25049 7.99951ZM19.2505 7.99951C19.2505 5.60751 17.4635 3.5815 15.0935 3.2865C14.6845 3.2375 14.3075 3.5265 14.2565 3.9375C14.2055 4.3485 14.4965 4.72354 14.9075 4.77454C16.5285 4.97654 17.7505 6.36351 17.7505 7.99951C17.7505 8.99051 17.3065 9.91548 16.5315 10.5375C16.2085 10.7965 16.1565 11.2686 16.4155 11.5916C16.5635 11.7766 16.7815 11.8726 17.0005 11.8726C17.1655 11.8726 17.3315 11.8185 17.4695 11.7075C18.6015 10.7995 19.2505 9.44751 19.2505 7.99951Z" fill="#292F3F"/>
</g>
</svg>
