<svg width="24" height="24" viewBox="0 0 24 24" fill="none" xmlns="http://www.w3.org/2000/svg">
<g id="left-arrow">
<g id="1 - Light / chevron-circle-left">
<path id="chevron-circle-left-Light" d="M13.354 9.35303L10.707 12L13.353 14.646C13.548 14.841 13.548 15.158 13.353 15.353C13.255 15.451 13.127 15.499 12.999 15.499C12.871 15.499 12.743 15.45 12.645 15.353L9.64502 12.353C9.45002 12.158 9.45002 11.841 9.64502 11.646L12.645 8.646C12.84 8.451 13.157 8.451 13.352 8.646C13.547 8.841 13.549 9.15803 13.354 9.35303ZM21.5 12C21.5 17.238 17.238 21.5 12 21.5C6.762 21.5 2.5 17.238 2.5 12C2.5 6.762 6.762 2.5 12 2.5C17.238 2.5 21.5 6.761 21.5 12ZM20.5 12C20.5 7.313 16.687 3.5 12 3.5C7.313 3.5 3.5 7.313 3.5 12C3.5 16.687 7.313 20.5 12 20.5C16.687 20.5 20.5 16.687 20.5 12Z" fill="black"/>
</g>
</g>
</svg>
