<svg width="24" height="24" viewBox="0 0 24 24" fill="none" xmlns="http://www.w3.org/2000/svg">
<g id="Group 11779">
<g id="2 - Regular / menu">
<path id="menu-Regular" d="M21.75 19C21.75 19.414 21.414 19.75 21 19.75H8C7.586 19.75 7.25 19.414 7.25 19C7.25 18.586 7.586 18.25 8 18.25H21C21.414 18.25 21.75 18.586 21.75 19ZM3 12.75H21C21.414 12.75 21.75 12.414 21.75 12C21.75 11.586 21.414 11.25 21 11.25H3C2.586 11.25 2.25 11.586 2.25 12C2.25 12.414 2.586 12.75 3 12.75ZM12 5.75H21C21.414 5.75 21.75 5.414 21.75 5C21.75 4.586 21.414 4.25 21 4.25H12C11.586 4.25 11.25 4.586 11.25 5C11.25 5.414 11.586 5.75 12 5.75Z" fill="black"/>
</g>
</g>
</svg>
