<svg width="24" height="24" viewBox="0 0 24 24" fill="none" xmlns="http://www.w3.org/2000/svg">
<g id="report">
<g id="2 - Regular / flag">
<path id="flag-Regular" d="M17.118 9.59481C16.943 9.24406 16.943 8.82511 17.118 8.47436L19.6709 3.35836C19.7869 3.12586 19.7749 2.84828 19.6379 2.6268C19.5009 2.40533 19.2599 2.271 18.9999 2.271H8.99994C6.38094 2.271 4.24994 4.40659 4.24994 7.03125V21.0194C4.24994 21.4343 4.58594 21.771 4.99994 21.771C5.41394 21.771 5.74994 21.4343 5.74994 21.0194V15.8001H18.9999C19.2599 15.8001 19.5009 15.6649 19.6379 15.4444C19.7739 15.2229 19.7869 14.9453 19.6709 14.7128L17.118 9.59481ZM5.74994 14.2959V7.03027C5.74994 5.2344 7.20794 3.77325 8.99994 3.77325H17.7869L15.7769 7.80195C15.3919 8.57361 15.3919 9.49556 15.7769 10.2672L17.7869 14.2959H5.74994Z" fill="#292F3F"/>
</g>
</g>
</svg>
