<svg width="24" height="24" viewBox="0 0 24 24" fill="none" xmlns="http://www.w3.org/2000/svg">
<g id="right-arrow">
<g id="1 - Light / chevron-circle-right">
<path id="chevron-circle-right-Light" d="M12 2.5C6.762 2.5 2.5 6.762 2.5 12C2.5 17.238 6.762 21.5 12 21.5C17.238 21.5 21.5 17.238 21.5 12C21.5 6.762 17.238 2.5 12 2.5ZM12 20.5C7.313 20.5 3.5 16.687 3.5 12C3.5 7.313 7.313 3.5 12 3.5C16.687 3.5 20.5 7.313 20.5 12C20.5 16.687 16.687 20.5 12 20.5ZM14.354 11.646C14.549 11.841 14.549 12.158 14.354 12.353L11.354 15.353C11.256 15.451 11.128 15.499 11 15.499C10.872 15.499 10.744 15.45 10.646 15.353C10.451 15.158 10.451 14.841 10.646 14.646L13.292 12L10.646 9.354C10.451 9.159 10.451 8.84197 10.646 8.64697C10.841 8.45197 11.158 8.45197 11.353 8.64697L14.354 11.646Z" fill="black"/>
</g>
</g>
</svg>
