<svg width="24" height="24" viewBox="0 0 24 24" fill="none" xmlns="http://www.w3.org/2000/svg">
<g id="share">
<g id="2 - Regular / upload">
<path id="upload-Regular" d="M8.46997 7.5303C8.17697 7.2373 8.17697 6.76226 8.46997 6.46926L11.47 3.46926C11.763 3.17626 12.238 3.17626 12.531 3.46926L15.531 6.46926C15.824 6.76226 15.824 7.2373 15.531 7.5303C15.385 7.6763 15.193 7.75027 15.001 7.75027C14.809 7.75027 14.617 7.6773 14.471 7.5303L12.751 5.81033V11.0003C12.751 11.4143 12.415 11.7503 12.001 11.7503C11.587 11.7503 11.251 11.4143 11.251 11.0003V5.8113L9.53101 7.53127C9.23701 7.82327 8.76297 7.8233 8.46997 7.5303ZM17 10.2503C16.586 10.2503 16.25 10.5863 16.25 11.0003C16.25 11.4143 16.586 11.7503 17 11.7503C18.792 11.7503 20.25 13.2083 20.25 15.0003V16.0003C20.25 17.7923 18.792 19.2503 17 19.2503H7C5.208 19.2503 3.75 17.7923 3.75 16.0003V15.0003C3.75 13.2083 5.208 11.7503 7 11.7503C7.414 11.7503 7.75 11.4143 7.75 11.0003C7.75 10.5863 7.414 10.2503 7 10.2503C4.381 10.2503 2.25 12.3813 2.25 15.0003V16.0003C2.25 18.6193 4.381 20.7503 7 20.7503H17C19.619 20.7503 21.75 18.6193 21.75 16.0003V15.0003C21.75 12.3813 19.619 10.2503 17 10.2503ZM18 15.0003C18 14.4483 17.552 14.0003 17 14.0003C16.448 14.0003 16 14.4483 16 15.0003C16 15.5523 16.448 16.0003 17 16.0003C17.552 16.0003 18 15.5523 18 15.0003Z" fill="#292F3F"/>
</g>
</g>
</svg>
