<svg width="20" height="20" viewBox="0 0 20 20" fill="none" xmlns="http://www.w3.org/2000/svg">
<g id="4 - Filled / trash">
<path id="trash-Filled" d="M18.3334 5.20833C18.3334 5.66917 17.96 6.04167 17.5 6.04167H2.50002C2.04002 6.04167 1.66669 5.66917 1.66669 5.20833C1.66669 4.7475 2.04002 4.375 2.50002 4.375H5.46587C5.82504 4.375 6.14252 4.1466 6.25668 3.80493L6.52 3.01493C6.7475 2.33327 7.38336 1.875 8.10086 1.875H11.9C12.6184 1.875 13.2542 2.33329 13.4809 3.01412L13.7442 3.80575C13.8575 4.14575 14.1759 4.375 14.535 4.375H17.5C17.96 4.375 18.3334 4.7475 18.3334 5.20833ZM16.0833 7.73336L15.575 15.4C15.4667 16.9333 14.1834 18.125 12.6584 18.125H7.34168C5.81668 18.125 4.53335 16.9333 4.42502 15.4083L3.9167 7.73336C3.90836 7.62502 3.95003 7.50826 4.02503 7.42493C4.10837 7.34159 4.2167 7.29167 4.33336 7.29167H15.6667C15.7833 7.29167 15.8917 7.34159 15.975 7.42493C16.05 7.50826 16.0917 7.62502 16.0833 7.73336ZM9.16669 10.2083C9.16669 9.75 8.79169 9.375 8.33335 9.375C7.87502 9.375 7.50002 9.75 7.50002 10.2083V14.375C7.50002 14.8333 7.87502 15.2083 8.33335 15.2083C8.79169 15.2083 9.16669 14.8333 9.16669 14.375V10.2083ZM12.5 10.2083C12.5 9.75 12.125 9.375 11.6667 9.375C11.2084 9.375 10.8334 9.75 10.8334 10.2083V14.375C10.8334 14.8333 11.2084 15.2083 11.6667 15.2083C12.125 15.2083 12.5 14.8333 12.5 14.375V10.2083Z" fill="#E20007"/>
</g>
</svg>
