<svg width="24" height="24" viewBox="0 0 24 24" fill="none" xmlns="http://www.w3.org/2000/svg">
<g id="Twitter">
<path id="Vector" d="M21.057 7.18066C21.0663 7.39186 21.0663 7.59346 21.0663 7.80466C21.0756 14.2079 16.3711 21.5999 7.76784 21.5999C5.23039 21.5999 2.73924 20.8415 0.600006 19.4207C0.970437 19.4687 1.34087 19.4879 1.7113 19.4879C3.81349 19.4879 5.86012 18.7583 7.5178 17.4047C5.51747 17.3663 3.75793 16.0127 3.14672 14.0351C3.85053 14.1791 4.57287 14.1503 5.25817 13.9487C3.08189 13.5071 1.51682 11.5199 1.50756 9.20626C1.50756 9.18706 1.50756 9.16786 1.50756 9.14866C2.15581 9.52306 2.88741 9.73426 3.62828 9.75346C1.58165 8.33266 0.942654 5.50065 2.1836 3.28304C4.56361 6.31665 8.06418 8.15026 11.8241 8.35186C11.4444 6.67185 11.963 4.90545 13.1761 3.71505C15.0561 1.88144 18.0195 1.97744 19.7976 3.92625C20.844 3.71505 21.8535 3.31184 22.7703 2.74544C22.4184 3.86865 21.6868 4.81905 20.7144 5.42385C21.6405 5.30865 22.548 5.04945 23.4 4.66545C22.7703 5.64465 21.9738 6.48945 21.057 7.18066Z" fill="#1D9BF0"/>
</g>
</svg>
